<?xml version="1.0" encoding="iso-8859-1"?>
<!-- Uploaded to: SVG Repo, www.svgrepo.com, Generator: SVG Repo Mixer Tools -->
<svg height="800px" width="800px" version="1.1" id="Layer_1" xmlns="http://www.w3.org/2000/svg" xmlns:xlink="http://www.w3.org/1999/xlink" 
	 viewBox="0 0 512 512" xml:space="preserve">
<path style="fill:#FF5050;" d="M475.919,471.338H36.081c-15.182,0-27.49-12.307-27.49-27.49V132.295
	c0-15.182,12.307-27.49,27.49-27.49h439.839c15.182,0,27.49,12.307,27.49,27.49v311.553
	C503.409,459.03,491.102,471.338,475.919,471.338z"/>
<circle style="fill:#FFFFFF;" cx="256" cy="288.072" r="119.123"/>
<path style="fill:#FF5050;" d="M310.98,269.745h-36.653v-36.653c0-5.06-4.103-9.163-9.163-9.163h-18.327
	c-5.06,0-9.163,4.103-9.163,9.163v36.653H201.02c-5.06,0-9.163,4.103-9.163,9.163v18.327c0,5.06,4.103,9.163,9.163,9.163h36.653
	v36.653c0,5.06,4.103,9.163,9.163,9.163h18.327c5.06,0,9.163-4.103,9.163-9.163v-36.653h36.653c5.06,0,9.163-4.103,9.163-9.163
	v-18.327C320.143,273.848,316.04,269.745,310.98,269.745z"/>
<path style="fill:#C84146;" d="M475.919,443.848H36.081c-15.182,0-27.49-12.307-27.49-27.49v27.49
	c0,15.182,12.307,27.49,27.49,27.49h439.839c15.182,0,27.49-12.307,27.49-27.49v-27.49
	C503.409,431.54,491.102,443.848,475.919,443.848z"/>
<path d="M475.919,96.215H328.734V68.152c0-19.895-16.186-36.081-36.081-36.081h-73.307c-19.895,0-36.081,16.186-36.081,36.081
	v28.063H36.081C16.186,96.215,0,112.401,0,132.295v311.553c0,19.895,16.186,36.081,36.081,36.081h439.839
	c19.895,0,36.081-16.186,36.081-36.081V132.295C512,112.401,495.814,96.215,475.919,96.215z M200.447,68.152
	c0-10.421,8.478-18.899,18.899-18.899h73.307c10.421,0,18.899,8.478,18.899,18.899v28.063H200.447V68.152z M494.819,443.848
	c0,10.421-8.478,18.899-18.899,18.899H36.081c-10.421,0-18.899-8.478-18.899-18.899V132.295c0-10.421,8.478-18.899,18.899-18.899
	h439.839c10.421,0,18.899,8.478,18.899,18.899V443.848z"/>
<path d="M145.468,288.072c0-60.947,49.585-110.532,110.532-110.532c16.165,0,31.741,3.409,46.293,10.129
	c4.308,1.992,9.412,0.11,11.401-4.197c1.99-4.308,0.111-9.412-4.197-11.401c-16.827-7.772-34.826-11.712-53.498-11.712
	c-70.421,0-127.714,57.292-127.714,127.714c0,28.185,9,54.909,26.027,77.281c1.691,2.221,4.252,3.388,6.843,3.388
	c1.813,0,3.642-0.573,5.197-1.755c3.775-2.874,4.506-8.263,1.633-12.039C153.254,335.591,145.468,312.467,145.468,288.072z"/>
<path d="M360.994,231.098c-4.321,1.96-6.234,7.051-4.275,11.372c6.512,14.357,9.813,29.699,9.813,45.602
	c0,60.947-49.585,110.532-110.532,110.532c-23.99,0-46.804-7.553-65.978-21.843c-3.805-2.836-9.187-2.05-12.022,1.755
	c-2.835,3.804-2.049,9.187,1.755,12.022c22.164,16.517,48.529,25.247,76.246,25.247c70.421,0,127.714-57.292,127.714-127.714
	c0-18.368-3.818-36.098-11.348-52.699C370.406,231.053,365.315,229.138,360.994,231.098z"/>
<path d="M328.485,204.624c3.838,3.337,7.48,6.971,10.824,10.804c1.699,1.946,4.081,2.941,6.475,2.941
	c2.004,0,4.017-0.698,5.646-2.119c3.575-3.12,3.943-8.546,0.824-12.121c-3.861-4.425-8.066-8.62-12.495-12.472
	c-3.581-3.113-9.006-2.734-12.12,0.846C324.526,196.083,324.905,201.51,328.485,204.624z"/>
<path d="M282.917,261.154v-28.063c0-9.79-7.964-17.754-17.754-17.754h-18.327c-9.79,0-17.754,7.964-17.754,17.754v28.063H201.02
	c-9.79,0-17.754,7.964-17.754,17.754v18.327c0,9.79,7.964,17.754,17.754,17.754h28.063v28.063c0,9.79,7.964,17.754,17.754,17.754
	h18.327c9.79,0,17.754-7.964,17.754-17.754v-28.063h28.063c9.79,0,17.754-7.964,17.754-17.754v-18.327
	c0-9.79-7.964-17.754-17.754-17.754H282.917z M311.553,278.908v18.327c0,0.316-0.257,0.573-0.573,0.573h-36.653
	c-4.744,0-8.591,3.846-8.591,8.591v36.653c0,0.316-0.257,0.573-0.573,0.573h-18.327c-0.316,0-0.573-0.257-0.573-0.573v-36.653
	c0-4.744-3.846-8.591-8.591-8.591H201.02c-0.316,0-0.573-0.257-0.573-0.573v-18.327c0-0.316,0.257-0.573,0.573-0.573h36.653
	c4.744,0,8.591-3.846,8.591-8.591v-36.653c0-0.316,0.257-0.573,0.573-0.573h18.327c0.316,0,0.573,0.257,0.573,0.573v36.653
	c0,4.744,3.846,8.591,8.591,8.591h36.653C311.296,278.336,311.553,278.592,311.553,278.908z"/>
</svg>